<svg width="21" height="22" viewBox="0 0 21 22" fill="none" xmlns="http://www.w3.org/2000/svg">
<g clip-path="url(#clip0_1_92)">
<path d="M8.46796 0C10.8063 0 12.923 0.968229 14.4554 2.53372C15.9878 4.09922 16.9356 6.2618 16.9356 8.65068C16.9356 10.944 16.0621 13.0283 14.6368 14.5764C14.6627 14.5959 14.6878 14.6176 14.7115 14.6416L20.8076 20.8608C21.0629 21.1202 21.0643 21.5424 20.81 21.8034C20.5561 22.0645 20.1428 22.0655 19.8875 21.8061L13.7914 15.5869C13.7527 15.5475 13.7199 15.5046 13.6927 15.4589C12.2534 16.6132 10.4394 17.3015 8.46779 17.3015C6.12941 17.3015 4.01238 16.3333 2.47998 14.7678C0.947758 13.2023 0 11.0396 0 8.65068C0 6.2618 0.947758 4.09922 2.48015 2.53372C4.01255 0.968408 6.12958 0 8.46796 0ZM13.5087 3.50106C12.2187 2.18317 10.4366 1.36802 8.46796 1.36802C6.49936 1.36802 4.71706 2.18317 3.42704 3.50106C2.13701 4.81895 1.33909 6.63957 1.33909 8.65068C1.33909 10.6618 2.13701 12.4826 3.42704 13.8005C4.71689 15.1184 6.49919 15.9335 8.46796 15.9335C10.4366 15.9335 12.2187 15.1184 13.5087 13.8005C14.7987 12.4828 15.5967 10.662 15.5967 8.65068C15.5967 6.63957 14.7987 4.81895 13.5087 3.50106Z" fill="#8E97A6"/>
</g>
<defs>
<clipPath id="clip0_1_92">
<rect width="21" height="22" fill="white"/>
</clipPath>
</defs>
</svg>
