<svg width="36" height="30" viewBox="0 0 36 30" fill="none" xmlns="http://www.w3.org/2000/svg">
<g clip-path="url(#clip0_32_45)">
<path d="M16.6699 14.871H19.3301C19.7197 14.871 20.0771 15.0308 20.332 15.2911C20.5898 15.5514 20.748 15.9094 20.748 16.3028V21.9649C20.748 22.3583 20.5898 22.7163 20.332 22.9766C20.0742 23.2369 19.7197 23.3967 19.3301 23.3967H16.6699C16.2803 23.3967 15.9258 23.2369 15.668 22.9766C15.4102 22.7163 15.252 22.3583 15.252 21.9649V16.3058C15.252 15.9123 15.4102 15.5514 15.668 15.2941C15.9258 15.0337 16.2803 14.871 16.6699 14.871ZM2.04199 4.12969H11.2705V1.46137C11.2705 1.05905 11.4316 0.695185 11.6953 0.428944C11.9561 0.162703 12.3193 0 12.7178 0H23.2822C23.6807 0 24.041 0.162703 24.3047 0.428944C24.5654 0.692227 24.7295 1.05905 24.7295 1.46137V4.13265H33.958C34.5205 4.13265 35.0303 4.3634 35.4023 4.73909C35.7715 5.11183 36.0029 5.62952 36.0029 6.1975V27.6802C36.0029 28.2482 35.7744 28.7629 35.4023 29.1386C35.0332 29.5113 34.5205 29.745 33.958 29.745H2.04199C1.47949 29.745 0.969727 29.5143 0.597656 29.1386C0.228516 28.76 0 28.2452 0 27.6772V6.19454C0 5.62656 0.228516 5.11183 0.600586 4.73613C0.969727 4.3634 1.47949 4.12969 2.04199 4.12969ZM23.2822 1.28092H12.7178C12.668 1.28092 12.624 1.30162 12.5918 1.33416C12.5596 1.3667 12.5391 1.41108 12.5391 1.46137V4.10307H23.4609V1.46137C23.4609 1.41108 23.4404 1.3667 23.4082 1.33416C23.376 1.29866 23.332 1.28092 23.2822 1.28092ZM1.26562 16.4567C5.93262 17.8115 9.38379 18.3943 14.0537 18.6132V19.8941C9.38672 19.6782 5.93555 19.1102 1.26562 17.7819V27.6743C1.26562 27.8902 1.35352 28.0855 1.49414 28.2275C1.63477 28.3695 1.82812 28.4582 2.04199 28.4582H33.9551C34.1689 28.4582 34.3623 28.3695 34.5029 28.2275C34.6436 28.0855 34.7314 27.8902 34.7314 27.6743V17.7849C30.0703 19.1102 26.8271 19.6782 22.1689 19.8941V18.6132C26.8301 18.3913 30.0732 17.8086 34.7314 16.4567V6.19454C34.7314 5.97859 34.6436 5.78335 34.5029 5.64135C34.3623 5.49936 34.1689 5.41061 33.9551 5.41061H2.04199C1.82812 5.41061 1.63477 5.49936 1.49414 5.64135C1.35352 5.78335 1.26562 5.97859 1.26562 6.19454V16.4567ZM19.3301 16.152H16.6699C16.6289 16.152 16.5908 16.1697 16.5645 16.1963C16.5381 16.223 16.5205 16.2614 16.5205 16.3028V21.9649C16.5205 22.0063 16.5381 22.0448 16.5645 22.0714C16.5908 22.101 16.6289 22.1158 16.6699 22.1158H19.3301C19.3711 22.1158 19.4092 22.098 19.4355 22.0714C19.4619 22.0448 19.4795 22.0063 19.4795 21.9649V16.3058C19.4795 16.2644 19.4619 16.2259 19.4355 16.1993C19.4092 16.1697 19.3711 16.152 19.3301 16.152Z" fill="white"/>
</g>
<defs>
<clipPath id="clip0_32_45">
<rect width="36" height="29.7391" fill="white"/>
</clipPath>
</defs>
</svg>
