<svg width="35" height="52" viewBox="0 0 35 52" fill="none" xmlns="http://www.w3.org/2000/svg">
<path d="M19 0C20.7965 0.101097 22.2704 0.361061 23.539 0.989307C26.3914 2.44799 27.6599 4.88877 27.7626 8.73768C27.8139 10.2975 27.8139 11.8067 27.8139 13.3665V17.9447C27.8139 20.7538 28.2906 22.3136 29.2951 23.404C30.2997 24.4438 32.0376 25.2743 35 25.9025V26.1119C32.0962 26.733 30.1384 27.6212 29.1925 28.7116C28.2466 29.802 27.8213 31.5712 27.8213 34.0119V40.6121C27.8213 44.3527 27.5573 46.1725 27.0293 47.3712C26.5014 48.5699 25.6581 49.6603 24.4409 50.4908C23.2236 51.3212 21.8524 51.7906 19 52V51.0612C20.7452 50.9601 22.2191 50.5919 23.3263 50.0214C25.6508 48.7721 26.758 46.6419 26.758 42.6413V36.2938C26.758 32.1344 26.9707 30.7841 27.286 29.9536C27.6526 28.9643 28.1806 28.1339 29.3978 27.354C30.505 26.6246 32.1989 26.1047 33.5701 26.0036C31.8836 25.7942 30.2997 25.3826 29.0825 24.4438C27.8139 23.404 26.9193 22.4147 26.8094 18.934C26.758 17.5331 26.758 15.7134 26.758 14.3052V10.0953C26.758 5.83474 26.0687 4.42661 24.8075 3.07624C23.539 1.67532 21.3245 1.09763 19 0.94598V0Z" fill="#25C3F4"/>
<path d="M0 26H34" stroke="#25C3F4" stroke-miterlimit="10"/>
</svg>
