<svg width="27" height="24" viewBox="0 0 27 24" fill="none" xmlns="http://www.w3.org/2000/svg">
<g clip-path="url(#clip0_1_96)">
<path d="M3.19046 12.1734C3.15272 9.87202 3.77188 7.608 4.97464 5.64939C6.2268 3.60608 8.07729 2.00224 10.2722 1.05788C11.058 0.717675 11.8749 0.455097 12.7112 0.273853C15.3749 -0.331053 18.1656 0.0284417 20.5914 1.28899C23.0173 2.54953 24.9226 4.63023 25.9717 7.16444C26.3069 7.95216 26.5645 8.77102 26.7408 9.60927C27.1635 11.5882 27.0642 13.6438 26.4529 15.5723C25.8323 17.5078 24.7224 19.2482 23.2317 20.6232C21.814 21.9735 20.1046 22.9758 18.2373 23.5517C16.4516 24.0858 14.5582 24.1421 12.7442 23.7151C12.1509 23.5764 11.5708 23.3857 11.0105 23.1453C10.4325 22.8996 9.87667 22.604 9.3494 22.2619C9.16262 22.1401 9.03165 21.9486 8.9853 21.7297C8.93894 21.5109 8.98099 21.2824 9.1022 21.0947C9.22342 20.907 9.41386 20.7753 9.63164 20.7287C9.84941 20.6821 10.0767 20.7244 10.2635 20.8462C10.709 21.1395 11.1796 21.3923 11.6697 21.6015C12.1399 21.8028 12.6266 21.9624 13.1243 22.0786C14.6568 22.4398 16.2566 22.3918 17.7649 21.9394C19.3854 21.4422 20.8693 20.5744 22.1001 19.4041C23.3772 18.2246 24.328 16.7324 24.8599 15.0732C25.3831 13.4224 25.4664 11.6625 25.1016 9.96926C24.9509 9.23769 24.7301 8.52248 24.4424 7.83362C23.5473 5.65421 21.912 3.86463 19.8275 2.78325C17.7429 1.70188 15.3443 1.39883 13.0584 1.92804C12.3291 2.08581 11.6168 2.31436 10.9314 2.61047C9.05512 3.41754 7.47324 4.78842 6.40286 6.53501C5.34399 8.25733 4.80935 10.2533 4.86478 12.2772L6.78738 10.1305C6.8614 10.0475 6.95094 9.98005 7.0509 9.93189C7.15086 9.88372 7.25928 9.85582 7.36997 9.84977C7.48066 9.84372 7.59145 9.85964 7.69601 9.89663C7.80058 9.93361 7.89688 9.99094 7.9794 10.0653C8.06193 10.1397 8.12906 10.2297 8.17698 10.3302C8.2249 10.4307 8.25267 10.5396 8.25869 10.6509C8.2647 10.7622 8.24886 10.8735 8.21206 10.9786C8.17527 11.0837 8.11823 11.1805 8.04422 11.2635L4.80984 14.8788C4.66046 15.0448 4.45169 15.1445 4.22929 15.1561C4.00689 15.1677 3.78899 15.0902 3.62332 14.9406L0.25711 11.6742C0.0965616 11.519 0.00393603 11.3061 -0.000390673 11.0822C-0.00471738 10.8583 0.0796092 10.6419 0.234038 10.4805C0.388467 10.3192 0.600349 10.2261 0.823071 10.2217C1.04579 10.2174 1.26111 10.3021 1.42166 10.4573L3.19046 12.1734V12.1734ZM13.7791 7.26382C13.7791 7.03949 13.8677 6.82434 14.0256 6.66571C14.1834 6.50708 14.3974 6.41796 14.6206 6.41796C14.8438 6.41796 15.0579 6.50708 15.2157 6.66571C15.3735 6.82434 15.4622 7.03949 15.4622 7.26382V12.1005L19.2569 14.2185C19.4408 14.3324 19.574 14.5133 19.6286 14.7235C19.6832 14.9337 19.6551 15.1569 19.55 15.3468C19.445 15.5366 19.2711 15.6784 19.0647 15.7426C18.8582 15.8068 18.6351 15.7885 18.4417 15.6915L14.2823 13.366C14.1322 13.2997 14.0046 13.1909 13.9152 13.0528C13.8258 12.9147 13.7785 12.7533 13.7791 12.5886V7.26382Z" fill="white"/>
</g>
<defs>
<clipPath id="clip0_1_96">
<rect width="27" height="24" fill="white"/>
</clipPath>
</defs>
</svg>
