<svg width="36" height="36" viewBox="0 0 36 36" fill="none" xmlns="http://www.w3.org/2000/svg">
<g clip-path="url(#clip0_1_105)">
<path d="M17.9999 -1.27968e-05C22.1659 -0.00120362 26.2034 1.44223 29.4244 4.08431C32.6454 6.72639 34.8506 10.4036 35.6642 14.4894C36.4778 18.5752 35.8494 22.8167 33.8862 26.4911C31.923 30.1655 28.7464 33.0454 24.8977 34.6402C21.0491 36.235 16.7665 36.4458 12.7798 35.2368C8.79304 34.0279 5.34889 31.4739 3.03421 28.0101C0.719537 24.5463 -0.322435 20.3871 0.085857 16.2412C0.494149 12.0952 2.32744 8.21914 5.27332 5.27342C6.94229 3.5989 8.9259 2.27092 11.11 1.36589C13.2942 0.460869 15.6357 -0.00333633 17.9999 -1.27968e-05ZM6.73817 28.6494C7.70203 28.1484 8.83582 28.0254 9.96082 27.9053C11.9794 27.6855 13.9979 27.4687 14.7597 24.5449C14.7629 24.5275 14.7688 24.5107 14.7772 24.4951C13.8485 23.6953 13.078 23.0039 12.9286 21.3662H12.8436C12.6478 21.3649 12.4554 21.3145 12.2841 21.2197C12.0039 21.0434 11.7882 20.7814 11.6688 20.4726C11.5232 20.1105 11.441 19.726 11.4257 19.3359C11.4257 19.2158 11.4257 18.9873 11.4257 18.7705C11.4257 18.5537 11.4257 18.3926 11.455 18.29C11.4606 18.2589 11.4695 18.2285 11.4813 18.1992C11.6806 17.6455 11.9852 17.4639 12.3895 17.4756L12.1229 17.2998C11.9794 15.501 12.4159 12.3838 10.4472 11.792C14.1415 7.22753 18.3983 4.76073 21.5975 8.80663C25.4472 9.00878 26.994 15.1289 23.9208 17.7041L23.9032 17.8564C24.0196 17.8207 24.1394 17.7971 24.2606 17.7861C24.4768 17.7649 24.6945 17.8067 24.8876 17.9062C24.9922 17.9608 25.0848 18.0359 25.1598 18.127C25.2348 18.2181 25.2907 18.3233 25.3241 18.4365C25.4048 18.7369 25.3977 19.0541 25.3036 19.3506C25.163 19.793 24.9843 20.3027 24.8173 20.7334C24.7683 20.9186 24.6665 21.0855 24.5243 21.2139C24.3359 21.3483 24.103 21.405 23.8739 21.3721H23.7391C23.7098 22.8926 22.9657 23.5898 21.9813 24.5039L21.8319 24.6445C22.7108 27.1084 24.5184 27.4131 26.3261 27.7178C27.3866 27.8935 28.4442 28.0723 29.3466 28.5967C31.4134 26.3861 32.7885 23.6192 33.3022 20.6369C33.816 17.6545 33.446 14.587 32.2379 11.8123C31.0298 9.0376 29.0363 6.67696 26.5031 5.02125C23.9699 3.36554 21.0077 2.48709 17.9814 2.49415C14.9551 2.50121 11.997 3.39346 9.47159 5.06098C6.94615 6.72849 4.96372 9.0984 3.76856 11.8787C2.57341 14.659 2.21775 17.7282 2.74541 20.7081C3.27307 23.6881 4.66099 26.4485 6.73817 28.6494Z" fill="white"/>
</g>
<defs>
<clipPath id="clip0_1_105">
<rect width="36" height="36" fill="white"/>
</clipPath>
</defs>
</svg>
