<svg width="36" height="36" viewBox="0 0 36 36" fill="none" xmlns="http://www.w3.org/2000/svg">
<g clip-path="url(#clip0_1_111)">
<path d="M34.6986 18.0163C34.6758 18.3523 34.6664 18.6271 34.6664 18.7586C34.6664 19.0692 34.4493 19.3285 34.1587 19.3935L33.3038 19.656C33.2402 19.6754 33.1761 19.685 33.1131 19.685V19.6868H32.9771C32.6742 19.6868 32.4193 19.4794 32.3473 19.1987L31.5984 16.9173L31.5967 16.9118L31.5958 16.9121L31.4599 16.4823L30.1916 18.7607C30.1368 18.8588 30.0609 18.9374 29.9722 18.9933L29.973 18.9945L29.3121 19.4137C29.0089 19.6059 28.6072 19.5163 28.4147 19.213C28.3661 19.1363 28.3356 19.0534 28.3222 18.9693L27.6794 15.3596L26.7064 14.6702L24.4233 14.2627C24.5016 14.3866 24.581 14.5091 24.6595 14.6301C25.0661 15.2576 25.4461 15.8439 25.5721 16.448C25.7751 17.4192 25.4127 18.2313 23.7958 18.8114C23.8424 18.8395 23.8884 18.8703 23.9341 18.9051C24.564 19.3871 24.7157 20.0978 23.342 21.8923C22.9951 22.3455 22.6969 22.746 22.4464 23.094C22.2495 23.368 22.0658 23.6316 21.8968 23.8851L22.2059 26.1339C22.2475 26.4368 22.1748 26.7316 21.9797 27.0155C21.835 27.2261 21.6211 27.4262 21.3346 27.614C21.1453 27.7382 20.9836 27.863 20.8512 27.9881C20.7987 28.0373 20.7513 28.0866 20.7082 28.1352L20.8503 28.7777C20.9183 29.0856 20.7554 29.3906 20.4768 29.5116L20.477 29.5122L20.2389 29.6159C20.1917 29.8004 20.1237 29.9815 20.0364 30.159C19.8952 30.4444 19.6995 30.7233 19.4502 30.9952C19.1848 31.2855 18.8924 31.5052 18.5736 31.6541C18.2408 31.8096 17.8901 31.8873 17.5207 31.8873H16.3758C16.0166 31.8873 15.7251 31.5961 15.7251 31.2366C15.7251 30.9427 15.6894 30.631 15.6187 30.3005C15.5455 29.9586 15.4339 29.5924 15.2845 29.2016C15.116 28.761 14.9874 28.3622 14.8989 28.0054C14.8046 27.6251 14.7574 27.2958 14.7574 27.0169C14.7574 26.7679 14.7788 26.5449 14.8216 26.3478C14.8723 26.1125 14.954 25.9127 15.0665 25.7478C15.0782 25.7305 15.0914 25.6813 15.1063 25.5995C15.1292 25.4738 15.1409 25.3013 15.1409 25.0807C15.1409 24.9128 15.1119 24.7361 15.0548 24.551C14.9912 24.3459 14.8931 24.1271 14.7612 23.8959C14.5966 23.6073 14.4724 23.3744 14.3889 23.1977C14.2687 22.9443 14.2087 22.741 14.2087 22.5901C14.2087 21.5281 13.8445 21.294 13.3389 21.294C13.0351 21.294 12.6932 21.3403 12.3378 21.3886C11.8951 21.4487 11.4343 21.5111 10.9816 21.5111C10.6403 21.5111 10.3034 21.3553 9.97471 21.0459C9.73242 20.8179 9.479 20.4875 9.21797 20.0571C8.98125 19.6672 8.80254 19.3522 8.68125 19.1149C8.51426 18.7879 8.43106 18.5375 8.43106 18.3699C8.43106 17.9413 8.43076 17.9046 8.43047 17.8704C8.41318 16.0651 8.39736 14.3579 10.1385 13.0999C10.8604 12.0736 11.5104 11.408 12.2924 10.9844C13.1065 10.5432 14.0124 10.3888 15.2373 10.3888C15.5965 10.3888 15.888 10.6803 15.888 11.0394V11.962L16.6685 12.3036L16.6796 12.2506C16.754 11.8999 17.0988 11.6758 17.4495 11.7499L17.4521 11.7505V11.7499C17.6936 11.802 17.9133 11.8639 18.1131 11.9365C18.327 12.0145 18.5118 12.1032 18.6691 12.2046C18.7515 12.2579 18.8994 12.3051 19.077 12.3361C19.2756 12.3707 19.4886 12.3777 19.6685 12.342C19.764 12.323 19.8354 12.3004 19.8563 12.2758L19.8565 12.274C19.8563 12.274 19.856 12.274 19.8563 12.2734L19.8604 12.2526C19.8768 12.1557 19.8908 12.0575 19.9028 11.9585L19.1303 12.0273C18.8525 12.0514 18.6006 11.8967 18.4884 11.6585L18.4872 11.6588C18.2323 11.1226 17.6938 10.8475 17.018 10.5027C16.2914 10.1318 15.4359 9.695 14.5146 8.81785C11.4053 9.92088 10.4118 10.0726 10.1628 9.37918C10.0163 8.97253 10.2267 8.64704 10.51 8.20876C10.7654 7.81354 11.129 7.25162 11.129 6.72369C11.129 6.44097 11.3098 6.20015 11.562 6.1105L14.1794 4.91488H14.1788C13.8967 4.86508 13.5472 4.80297 13.2574 3.39466C13.1982 3.10549 13.3418 2.8219 13.5905 2.69123L13.5902 2.69065C13.7944 2.58313 14.0341 2.43635 14.3092 2.25002C14.5881 2.06105 14.9218 1.81847 15.3108 1.5214L15.3354 1.50265C14.0048 1.70978 12.7254 2.07511 11.4987 2.59924L11.499 2.60012C10.4754 3.04045 9.52119 3.55608 8.63789 4.14847C7.75312 4.74232 6.9334 5.41645 6.1793 6.17319L6.17666 6.17583C5.41992 6.92994 4.7458 7.74967 4.15225 8.63445C3.55957 9.51746 3.04395 10.4717 2.60361 11.4956C2.59893 11.5061 2.59424 11.5164 2.58926 11.5267C2.16211 12.5274 1.84219 13.5652 1.62686 14.6398C1.40977 15.7246 1.30137 16.845 1.30137 18.0001C1.30137 19.1553 1.41006 20.2759 1.62715 21.3608C1.63887 21.4191 1.65088 21.4777 1.66348 21.5366L4.67256 22.9754C4.89756 23.0832 5.03232 23.3038 5.04053 23.537H5.04082C5.07305 24.3972 4.84365 25.0332 4.60811 25.6857C4.43291 26.1708 4.25391 26.6671 4.2252 27.2513C4.22227 27.3131 4.21084 27.3723 4.19209 27.4283C4.77539 28.289 5.43545 29.0879 6.17402 29.8242L6.17666 29.8268V29.8265C6.93047 30.5833 7.75049 31.2577 8.63525 31.8512C9.51826 32.4436 10.4725 32.9595 11.4964 33.3999C11.5069 33.4043 11.5172 33.409 11.5274 33.4142C12.5276 33.8388 13.5656 34.1587 14.6402 34.3737C15.7251 34.5908 16.8454 34.6992 18.0006 34.6992C19.1555 34.6992 20.2761 34.5908 21.3606 34.3737C22.4467 34.1563 23.4949 33.8317 24.5048 33.4008L24.5042 33.3999C25.5281 32.9595 26.4823 32.4436 27.3656 31.8512C28.2501 31.2577 29.0698 30.5833 29.8242 29.8265L29.8269 29.8242C30.5833 29.0704 31.2577 28.2503 31.851 27.3656C32.4437 26.4825 32.9593 25.5283 33.3996 24.5044C33.4043 24.4939 33.4087 24.4836 33.414 24.4733C33.8388 23.4731 34.1587 22.4354 34.3737 21.3611C34.5891 20.2809 34.6978 19.1659 34.6986 18.0163ZM10.9854 1.40655C13.1795 0.468754 15.52 0 18 0C19.2393 0 20.4445 0.116895 21.6141 0.350979C22.7692 0.582427 23.8922 0.929597 24.9817 1.39249C24.9935 1.39689 25.0055 1.40157 25.0172 1.40655C26.1041 1.87414 27.1277 2.42844 28.0866 3.0721C29.0432 3.7137 29.9282 4.44144 30.7409 5.25678L30.7436 5.25942C31.5589 6.07212 32.2866 6.95719 32.9282 7.91374C33.5713 8.87234 34.1262 9.89627 34.5938 10.9832L34.5926 10.9835L34.5938 10.9855C35.0637 12.0854 35.4155 13.2192 35.6493 14.3858C35.8834 15.5553 36.0003 16.7606 36.0003 18.0001C36.0003 19.2397 35.8834 20.445 35.6493 21.6145C35.4182 22.77 35.0704 23.893 34.6075 24.9825C34.6031 24.9942 34.5987 25.0057 34.5938 25.0174C34.1262 26.1043 33.5716 27.128 32.9282 28.0869C32.2866 29.0434 31.5589 29.9285 30.7436 30.7412L30.7409 30.7438C29.9285 31.5591 29.0432 32.2869 28.0866 32.9285C27.128 33.5719 26.1041 34.1264 25.0172 34.594L25.0169 34.5932L25.0146 34.594C23.9147 35.064 22.781 35.4161 21.6144 35.6496C20.4445 35.8837 19.2395 36.0006 18 36.0006C16.7604 36.0006 15.5552 35.8837 14.3856 35.6496C13.2305 35.4185 12.1078 35.0713 11.0183 34.6081C11.0063 34.6037 10.9945 34.5993 10.9828 34.594C9.8959 34.1264 8.87227 33.5721 7.91309 32.9285C6.95684 32.2869 6.07148 31.5591 5.25879 30.7438L5.25615 30.7412C4.44111 29.9288 3.71338 29.0434 3.07178 28.0869C2.42842 27.1282 1.87383 26.1043 1.40625 25.0174L1.40713 25.0168L1.40625 25.0148C0.936328 23.9149 0.58418 22.7814 0.350684 21.6145C0.117188 20.4447 0 19.2397 0 17.9999C0 16.7603 0.117187 15.555 0.35127 14.3855C0.582422 13.2303 0.929883 12.1073 1.39307 11.0175C1.39746 11.0058 1.40186 10.9943 1.40684 10.9826C1.87441 9.89569 2.42871 8.87175 3.07236 7.91315C3.71396 6.95689 4.4417 6.07153 5.25674 5.25883L5.25938 5.2562C6.07207 4.44086 6.95742 3.71312 7.91367 3.07151C8.87256 2.42814 9.89649 1.87355 10.9834 1.40597L10.9837 1.40685L10.9854 1.40655ZM2.83623 24.5231C2.97773 24.8507 3.13242 25.175 3.3 25.4943C3.3293 25.4117 3.35859 25.3294 3.38818 25.248C3.53965 24.8287 3.68789 24.4177 3.73271 23.9621L2.36719 23.3094C2.50371 23.7145 2.65986 24.1188 2.83623 24.5208L2.83535 24.5211L2.83623 24.5231ZM25.4136 3.1509C24.8101 2.84739 24.1819 2.57902 23.5292 2.34699C21.1131 2.90334 20.4144 2.56965 19.6395 2.19904C19.2454 2.01066 18.825 1.80939 17.8975 1.80939H17.3426C17.2866 1.80939 17.1697 1.85685 16.9916 1.95207C16.7537 2.07951 16.4552 2.27961 16.0957 2.55383C15.7113 2.84709 15.3574 3.10315 15.0331 3.32288C14.8441 3.45091 14.6713 3.56194 14.5143 3.65687C14.8242 3.72835 15.0609 3.9223 15.2259 5.37221H15.2247C15.2546 5.64262 15.1107 5.91362 14.8497 6.03286L12.3905 7.15611C12.2707 7.86979 11.8822 8.47097 11.5948 8.9154C11.589 8.92478 11.5822 8.93181 11.5752 8.93679C11.8869 8.75046 12.6375 8.12116 14.4229 7.47428C14.6654 7.3691 14.9581 7.41979 15.1509 7.62252C16.0271 8.53894 16.887 8.97751 17.6051 9.34431C18.3577 9.7284 18.982 10.0472 19.4273 10.7002L20.4776 10.6064C20.5154 10.5997 20.5547 10.5959 20.5945 10.5959C20.9537 10.5959 21.2452 10.8871 21.2452 11.2463C21.2452 11.4487 21.2358 11.657 21.2174 11.8688C21.1998 12.064 21.1737 12.2661 21.138 12.4738C21.1368 12.4814 21.1356 12.4894 21.1342 12.497C21.1034 12.6745 21.0393 12.833 20.9487 12.9736C20.7176 13.3331 20.3423 13.5335 19.9198 13.6176C19.577 13.6859 19.1941 13.6768 18.8511 13.617C18.5115 13.5578 18.1913 13.4427 17.9654 13.2974C17.918 13.2669 17.8632 13.2376 17.8011 13.2098L17.7709 13.3519H17.7703C17.7612 13.3938 17.748 13.4357 17.7302 13.4764C17.5869 13.8048 17.2049 13.9548 16.8762 13.8118L15.0214 12.9997C14.7671 12.9115 14.5843 12.6695 14.5843 12.3851V11.7101C13.9008 11.754 13.3664 11.8788 12.905 12.129C12.3038 12.4545 11.7744 13.0161 11.1524 13.9106C11.1064 13.9847 11.0443 14.0506 10.9679 14.1028C9.69697 14.9752 9.71016 16.3771 9.72393 17.8613C9.72686 18.1616 9.72978 18.2802 9.72978 18.371C9.72978 18.4015 9.76406 18.3918 9.83291 18.5263C9.9416 18.7393 10.1051 19.0267 10.3239 19.3871C10.5202 19.7105 10.7007 19.9493 10.8624 20.1013C10.9395 20.174 10.979 20.2106 10.9799 20.2106C11.3722 20.2106 11.7759 20.1558 12.1635 20.1034C12.576 20.0477 12.9729 19.9938 13.3371 19.9938C14.5998 19.9938 15.508 20.4623 15.508 22.5907C15.508 22.63 15.5259 22.5696 15.5613 22.6446C15.6334 22.797 15.7424 23.0009 15.888 23.2563C16.0655 23.5678 16.2012 23.8728 16.2935 24.1707C16.3913 24.4862 16.4408 24.7903 16.4408 25.0813C16.4408 25.3654 16.4203 25.6162 16.3808 25.8336C16.3321 26.0985 16.2507 26.3141 16.1373 26.4799C16.1206 26.5045 16.1051 26.5502 16.0904 26.6173C16.0682 26.7207 16.057 26.854 16.057 27.0172C16.057 27.1986 16.0907 27.4247 16.1578 27.6954C16.2311 27.9899 16.3441 28.3376 16.4977 28.7393C16.6688 29.1873 16.7994 29.6179 16.8879 30.0313C16.9283 30.2206 16.9603 30.4057 16.9825 30.5862H17.5192C17.7038 30.5862 17.872 30.551 18.0231 30.4804C18.1881 30.4031 18.3451 30.2835 18.4934 30.1212C18.6554 29.944 18.7813 29.765 18.8707 29.5845C18.9489 29.4272 18.997 29.271 19.014 29.1164C19.0301 28.8823 19.1725 28.6649 19.4021 28.5647L19.4681 28.5357L19.377 28.1243C19.3412 27.9626 19.3673 27.7874 19.4634 27.6366C19.5964 27.4277 19.7625 27.2293 19.9603 27.0427C20.1524 26.8608 20.3736 26.6885 20.6218 26.5259C20.7677 26.4304 20.8629 26.3481 20.9109 26.278C20.9112 26.2778 20.9115 26.278 20.9118 26.2786L20.9156 26.2813L20.5819 23.8549C20.5503 23.694 20.5787 23.5215 20.6754 23.3735C20.8632 23.0867 21.1022 22.7407 21.3929 22.3364C21.6747 21.945 21.9806 21.5337 22.309 21.1045C23.0306 20.1614 23.1665 19.9528 23.1451 19.9367C23.1006 19.9024 22.9925 19.8579 22.8791 19.8116C22.4358 19.6302 21.9478 19.4298 21.7178 18.7753C21.7052 18.7428 21.6952 18.7085 21.6876 18.6734C21.6146 18.3227 21.8399 17.9788 22.1909 17.9061C23.9552 17.5373 24.3911 17.1458 24.3003 16.712C24.2235 16.344 23.908 15.8574 23.5705 15.3365C23.2342 14.8176 22.8788 14.2689 22.6397 13.6694C22.5832 13.5517 22.5615 13.4157 22.5855 13.2772C22.6474 12.9235 22.984 12.6868 23.3376 12.7486L27.0674 13.4143L27.0671 13.4169C27.1588 13.433 27.2481 13.4688 27.3293 13.5262L28.597 14.4241C28.7578 14.517 28.8779 14.6779 28.9122 14.8753L29.3865 17.5381L31.0342 14.578C31.1086 14.418 31.2472 14.2885 31.4285 14.2314C31.771 14.1233 32.1363 14.3134 32.2444 14.6559L32.8348 16.5209H32.8339L33.385 18.1997C33.4055 17.8416 33.4427 17.3761 33.5024 16.9106C33.5634 16.4369 33.6486 15.964 33.7655 15.6013C33.8511 15.3353 33.9624 15.1094 34.1042 14.9412C34.0072 14.3228 33.8748 13.714 33.7063 13.1154C33.503 12.3936 33.247 11.6895 32.9385 11.0046C32.6262 10.3143 32.2749 9.65633 31.8844 9.02908C31.4897 8.39597 31.0605 7.79977 30.595 7.23873C30.1245 6.67447 29.6171 6.14624 29.0745 5.65405C28.5357 5.16596 27.9554 4.70951 27.3337 4.28558C26.7182 3.8637 26.0774 3.48489 25.4136 3.1509ZM20.9194 26.3068L20.9162 26.2819L20.9124 26.2792C20.9156 26.2854 20.9224 26.3264 20.9194 26.3068ZM11.3801 8.94265C11.405 9.01208 11.4577 9.00593 11.5644 8.94382L11.3801 8.94265Z" fill="white"/>
</g>
<defs>
<clipPath id="clip0_1_111">
<rect width="36" height="36" fill="white"/>
</clipPath>
</defs>
</svg>
