<svg width="39" height="38" viewBox="0 0 39 38" fill="none" xmlns="http://www.w3.org/2000/svg">
<path d="M1 14.8195V34.2197C1 34.9058 1.26884 35.5637 1.74738 36.0488C2.22592 36.5339 2.87496 36.8064 3.55172 36.8064H35.4483C36.125 36.8064 36.7741 36.5339 37.2526 36.0488C37.7312 35.5637 38 34.9058 38 34.2197V14.8195M8.33621 11.4374C5.77118 12.2314 3.30847 13.332 1 14.716L18.0519 26.6342M18.0519 26.6342C18.4778 26.9318 18.9828 27.0911 19.5 27.0911C20.0172 27.0911 20.5222 26.9318 20.9481 26.6342M18.0519 26.6342L8.34259 19.8441M20.9481 26.6342L38 14.716C35.6915 13.332 33.2288 12.2314 30.6638 11.4374M20.9481 26.6342L30.6638 19.8377V2.94003C30.6638 2.4255 30.4622 1.93205 30.1033 1.56822C29.7443 1.20439 29.2576 1 28.75 1H10.25C9.74243 1 9.25565 1.20439 8.89674 1.56822C8.53784 1.93205 8.33621 2.4255 8.33621 2.94003V19.8441M25.5603 6.74895H13.4397M19.5 16.7142H13.4397M25.5603 11.7348H13.4397M15.1493 24.6166L1.82293 36.1274M23.8188 24.6166L37.1834 36.1274" stroke="white" stroke-width="1.5" stroke-linecap="round" stroke-linejoin="round"/>
</svg>
